<svg width="26" height="77" viewBox="0 0 26 77" fill="none" xmlns="http://www.w3.org/2000/svg">
<mask id="mask0_43_34" style="mask-type:alpha" maskUnits="userSpaceOnUse" x="0" y="0" width="26" height="27">
<rect y="26.604" width="25.7627" height="25.7627" transform="rotate(-90 0 26.604)" fill="#D9D9D9"/>
</mask>
<g mask="url(#mask0_43_34)">
<path d="M24.0769 18.3701L24.4304 18.0165L24.0769 17.663L13.3424 6.92849L12.9889 6.57494L12.6353 6.92849L1.90084 17.663L1.54729 18.0165L1.90084 18.3701L3.80621 20.2754L4.15976 20.629L4.51332 20.2754L12.9889 11.7999L21.4644 20.2754L21.818 20.629L22.1715 20.2754L24.0769 18.3701Z" stroke="#F8C60F"/>
</g>
<mask id="mask1_43_34" style="mask-type:alpha" maskUnits="userSpaceOnUse" x="0" y="17" width="26" height="27">
<rect y="43.3499" width="25.7627" height="25.7627" transform="rotate(-90 0 43.3499)" fill="#D9D9D9"/>
</mask>
<g mask="url(#mask1_43_34)">
<path d="M24.0769 35.1159L24.4304 34.7624L24.0769 34.4088L13.3424 23.6743L12.9889 23.3208L12.6353 23.6743L1.90084 34.4088L1.54729 34.7624L1.90084 35.1159L3.80621 37.0213L4.15976 37.3748L4.51332 37.0213L12.9889 28.5457L21.4644 37.0213L21.818 37.3748L22.1715 37.0213L24.0769 35.1159Z" stroke="#F8C60F"/>
</g>
<mask id="mask2_43_34" style="mask-type:alpha" maskUnits="userSpaceOnUse" x="0" y="34" width="26" height="27">
<rect y="60.0955" width="25.7627" height="25.7627" transform="rotate(-90 0 60.0955)" fill="#D9D9D9"/>
</mask>
<g mask="url(#mask2_43_34)">
<path d="M24.0769 51.8615L24.4304 51.508L24.0769 51.1544L13.3424 40.4199L12.9889 40.0664L12.6353 40.4199L1.90084 51.1544L1.54729 51.508L1.90084 51.8615L3.80621 53.7669L4.15976 54.1204L4.51332 53.7669L12.9889 45.2913L21.4644 53.7669L21.818 54.1204L22.1715 53.7669L24.0769 51.8615Z" stroke="#F8C60F"/>
</g>
<mask id="mask3_43_34" style="mask-type:alpha" maskUnits="userSpaceOnUse" x="0" y="51" width="26" height="26">
<rect y="76.8413" width="25.7627" height="25.7627" transform="rotate(-90 0 76.8413)" fill="#D9D9D9"/>
</mask>
<g mask="url(#mask3_43_34)">
<path d="M24.0769 68.6074L24.4304 68.2538L24.0769 67.9003L13.3424 57.1658L12.9889 56.8122L12.6353 57.1658L1.90084 67.9003L1.54729 68.2538L1.90084 68.6074L3.80621 70.5127L4.15976 70.8663L4.51332 70.5127L12.9889 62.0372L21.4644 70.5127L21.818 70.8663L22.1715 70.5127L24.0769 68.6074Z" stroke="#F8C60F"/>
</g>
</svg>
