<svg width="20" height="21" viewBox="0 0 20 21" fill="none" xmlns="http://www.w3.org/2000/svg">
<path d="M20 10.8413C20 5.31787 15.5234 0.841309 10 0.841309C4.47656 0.841309 0 5.31787 0 10.8413C0 16.3647 4.47656 20.8413 10 20.8413C10.0586 20.8413 10.1172 20.8413 10.1758 20.8374V13.0562H8.02734V10.5522H10.1758V8.7085C10.1758 6.57178 11.4805 5.40771 13.3867 5.40771C14.3008 5.40771 15.0859 5.47412 15.3125 5.50537V7.73975H14C12.9648 7.73975 12.7617 8.23193 12.7617 8.95459V10.5483H15.2422L14.918 13.0522H12.7617V20.4546C16.9414 19.2554 20 15.4077 20 10.8413Z" fill="#1D0A30"/>
</svg>
