<svg width="20" height="21" viewBox="0 0 20 21" fill="none" xmlns="http://www.w3.org/2000/svg">
<rect y="0.841309" width="20" height="20" rx="10" fill="#1D0A30"/>
<mask id="mask0_43_3219" style="mask-type:alpha" maskUnits="userSpaceOnUse" x="5" y="5" width="10" height="11">
<path d="M14.0909 5.84131H5.90909C5.40682 5.84131 5 6.24813 5 6.7504V14.9322C5 15.4345 5.40682 15.8413 5.90909 15.8413H14.0909C14.5932 15.8413 15 15.4345 15 14.9322V6.7504C15 6.24813 14.5932 5.84131 14.0909 5.84131ZM8.16091 14.0231H6.82V9.70858H8.16091V14.0231ZM7.47682 9.09176C7.04455 9.09176 6.695 8.74131 6.695 8.30994C6.695 7.87858 7.045 7.52858 7.47682 7.52858C7.90773 7.52858 8.25818 7.87904 8.25818 8.30994C8.25818 8.74131 7.90773 9.09176 7.47682 9.09176ZM13.1836 14.0231H11.8436V11.9249C11.8436 11.4245 11.8345 10.7809 11.1468 10.7809C10.4491 10.7809 10.3418 11.3259 10.3418 11.8886V14.0231H9.00182V9.70858H10.2882V10.2981H10.3064C10.4855 9.95904 10.9227 9.60131 11.575 9.60131C12.9327 9.60131 13.1836 10.4949 13.1836 11.6568V14.0231Z" fill="#F8C60F"/>
</mask>
<g mask="url(#mask0_43_3219)">
<rect y="0.841309" width="20" height="20" rx="10" fill="#F8C60F"/>
</g>
</svg>
