<svg width="95" height="34" viewBox="0 0 95 34" fill="none" xmlns="http://www.w3.org/2000/svg">
<rect x="1.4" y="1.24131" width="92.2" height="31.2" stroke="white" stroke-width="1.2"/>
<g clip-path="url(#clip0_43_24)">
<path d="M43.6743 11.8413L47.8187 21.8181H50.2774L46.133 11.8413H43.6743Z" fill="white"/>
<path d="M32.4946 21.8181H34.9533L39.0978 11.8413H36.6391L32.4946 21.8181Z" fill="white"/>
<path d="M23.9469 18.7376L22.0427 14.1435H19.3075L17.4034 18.7376L14.4004 11.8413H12L16.3444 21.8181H18.5098L20.6751 16.5939L22.8403 21.8181H25.0058L29.3503 11.8413H26.9499L23.9469 18.7376Z" fill="white"/>
<path d="M66.1313 15.6099C66.1301 14.6219 65.722 13.6747 64.9964 12.9762C64.2709 12.2776 63.2872 11.8846 62.2611 11.8835H55.1772V21.8181H57.3905V19.3364H61.9479L62.9789 21.8181H65.363L64.1369 18.8667C64.7407 18.5444 65.244 18.0724 65.5947 17.4998C65.9453 16.9272 66.1306 16.2747 66.1313 15.6099V15.6099ZM57.3905 14.015H62.2611C62.6986 14.0177 63.1171 14.187 63.4254 14.4858C63.7337 14.7846 63.9067 15.1887 63.9067 15.6099C63.9067 16.0311 63.7337 16.4352 63.4254 16.734C63.1171 17.0329 62.6986 17.2021 62.2611 17.2049H57.3905V14.015Z" fill="white"/>
<path d="M79.1302 11.8835H72.0605V21.8181H74.2601V19.3364H79.1307C80.1542 19.3322 81.1342 18.9378 81.8564 18.2394C82.5786 17.541 82.9841 16.5956 82.9841 15.6101C82.9841 14.6245 82.5786 13.6791 81.8564 12.9807C81.1342 12.2824 80.1542 11.8879 79.1307 11.8837L79.1302 11.8835ZM79.1302 17.2049H74.2601V14.015H79.1307C79.5681 14.0177 79.9866 14.187 80.2949 14.4858C80.6032 14.7846 80.7762 15.1887 80.7762 15.6099C80.7762 16.0311 80.6032 16.4352 80.2949 16.734C79.9866 17.0329 79.5681 17.2021 79.1307 17.2049H79.1302Z" fill="white"/>
<path d="M42.5007 14.761H40.2871V17.0483H42.5007V14.761Z" fill="white"/>
<path d="M40.2871 21.818V21.8413H42.5007V21.818V19.554H40.2871V21.818Z" fill="white"/>
</g>
<defs>
<clipPath id="clip0_43_24">
<rect width="71" height="10" fill="white" transform="translate(12 11.8413)"/>
</clipPath>
</defs>
</svg>
