<svg width="20" height="21" viewBox="0 0 20 21" fill="none" xmlns="http://www.w3.org/2000/svg">
<path d="M8.08447 10.8413C8.08447 11.8985 8.94143 12.7554 9.99854 12.7554C11.0556 12.7554 11.9126 11.8984 11.9126 10.8413C11.9126 9.7842 11.0556 8.92725 9.99854 8.92725C8.94143 8.92725 8.08447 9.7842 8.08447 10.8413Z" fill="#1D0A30"/>
<path d="M5.52256 7.45428C5.6146 7.20486 5.76138 6.97924 5.95209 6.794C6.1373 6.60326 6.36292 6.45648 6.61236 6.36447C6.81471 6.28592 7.11861 6.19236 7.67849 6.16689C8.28412 6.13928 8.46568 6.1333 9.99889 6.1333C11.5322 6.1333 11.7138 6.13912 12.3193 6.16674C12.8791 6.19236 13.1833 6.28588 13.3854 6.36447C13.6349 6.45644 13.8605 6.60323 14.0457 6.794C14.2364 6.97924 14.3832 7.20486 14.4754 7.45428C14.5539 7.65662 14.6475 7.96072 14.6729 8.52057C14.7006 9.12604 14.7065 9.3076 14.7065 10.841C14.7065 12.3742 14.7006 12.5557 14.6729 13.1613C14.6475 13.7212 14.5539 14.0252 14.4754 14.2275C14.3833 14.4769 14.2365 14.7025 14.0458 14.8878C13.8606 15.0785 13.635 15.2253 13.3856 15.3173C13.1832 15.396 12.8791 15.4896 12.3193 15.515C11.7138 15.5426 11.5324 15.5485 9.99904 15.5485C8.46553 15.5485 8.28396 15.5426 7.67865 15.515C7.11881 15.4896 6.81467 15.396 6.61236 15.3173C6.36471 15.2218 6.1398 15.0754 5.9521 14.8877C5.76441 14.7 5.61809 14.4751 5.52256 14.2275C5.444 14.0251 5.35045 13.7212 5.32482 13.1613C5.29721 12.5557 5.29139 12.3742 5.29139 10.841C5.29139 9.3076 5.29721 9.12604 5.32482 8.52057C5.35029 7.96072 5.44385 7.65658 5.52256 7.45428ZM9.99889 13.7894C11.6274 13.7894 12.9476 12.4694 12.9476 10.8408C12.9476 9.21225 11.6274 7.89221 9.99889 7.89221C8.37045 7.89221 7.05029 9.21225 7.05029 10.8408C7.05029 12.4694 8.37045 13.7894 9.99889 13.7894ZM6.93369 8.46471C7.31424 8.46471 7.62275 8.15615 7.62275 7.77564C7.62275 7.39514 7.31424 7.08654 6.93369 7.08654C6.55314 7.08654 6.24463 7.39506 6.24463 7.77561C6.24478 8.15615 6.55314 8.46471 6.93369 8.46471Z" fill="#1D0A30"/>
<path d="M10 0.841309C15.522 0.841309 20 5.31932 20 10.8413C20 16.3633 15.522 20.8413 10 20.8413C4.47801 20.8413 0 16.3633 0 10.8413C0 5.31932 4.47801 0.841309 10 0.841309ZM4.29246 13.2087C4.3202 13.82 4.41742 14.2373 4.55934 14.6026C4.70686 14.984 4.93245 15.3305 5.22164 15.6197C5.51084 15.9089 5.85726 16.1345 6.23871 16.282C6.60387 16.4239 7.02133 16.5209 7.63246 16.5488C8.24477 16.5768 8.44039 16.5835 9.99984 16.5835C11.5595 16.5835 11.7549 16.5768 12.3674 16.5488C12.9785 16.5209 13.396 16.4239 13.7612 16.282C14.1444 16.1378 14.4915 15.9118 14.7783 15.6196C15.0704 15.3328 15.2964 14.9857 15.4405 14.6026C15.5824 14.2374 15.6796 13.82 15.7074 13.2088C15.7356 12.5963 15.7422 12.4008 15.7422 10.8413C15.7422 9.28186 15.7356 9.08623 15.7075 8.47393C15.6798 7.86264 15.5827 7.44533 15.4408 7.08002C15.2966 6.69685 15.0705 6.34978 14.7783 6.06303C14.4916 5.77085 14.1445 5.54479 13.7613 5.40064C13.396 5.25873 12.9787 5.1617 12.3674 5.13377C11.7551 5.10584 11.5595 5.09912 10 5.09912C8.44055 5.09912 8.24492 5.10584 7.63262 5.13389C7.02133 5.1617 6.60402 5.25873 6.23871 5.40049C5.8555 5.54471 5.50837 5.7708 5.22152 6.06299C4.92944 6.34979 4.70345 6.69687 4.55934 7.08002C4.41726 7.44533 4.32023 7.86264 4.2923 8.47393C4.26437 9.08623 4.25781 9.28186 4.25781 10.8413C4.25781 12.4008 4.26437 12.5964 4.29246 13.2087Z" fill="#1D0A30"/>
</svg>
