<svg width="14" height="15" viewBox="0 0 14 15" fill="none" xmlns="http://www.w3.org/2000/svg">
<mask id="mask0_43_3249" style="mask-type:alpha" maskUnits="userSpaceOnUse" x="0" y="0" width="14" height="15">
<rect y="0.841309" width="14" height="14" fill="#D9D9D9"/>
</mask>
<g mask="url(#mask0_43_3249)">
<path d="M6.75406 8.11762C7.05801 8.11762 7.31821 8.0094 7.53465 7.79295C7.7511 7.57651 7.85932 7.31631 7.85932 7.01236C7.85932 6.70841 7.7511 6.44822 7.53465 6.23177C7.31821 6.01532 7.05801 5.9071 6.75406 5.9071C6.45011 5.9071 6.18992 6.01532 5.97347 6.23177C5.75702 6.44822 5.6488 6.70841 5.6488 7.01236C5.6488 7.31631 5.75702 7.57651 5.97347 7.79295C6.18992 8.0094 6.45011 8.11762 6.75406 8.11762ZM6.75406 13.6439C5.27117 12.3821 4.1636 11.2101 3.43136 10.1278C2.69913 9.04558 2.33301 8.04394 2.33301 7.12289C2.33301 5.74131 2.77742 4.64065 3.66623 3.82091C4.55505 3.00118 5.58432 2.59131 6.75406 2.59131C7.9238 2.59131 8.95307 3.00118 9.84189 3.82091C10.7307 4.64065 11.1751 5.74131 11.1751 7.12289C11.1751 8.04394 10.809 9.04558 10.0768 10.1278C9.34452 11.2101 8.23696 12.3821 6.75406 13.6439Z" fill="#CD4246"/>
</g>
</svg>
